<?xml version="1.0" encoding="utf-8"?>
<!-- Generator: Adobe Illustrator 16.0.0, SVG Export Plug-In . SVG Version: 6.00 Build 0)  -->
<!DOCTYPE svg PUBLIC "-//W3C//DTD SVG 1.1//EN" "http://www.w3.org/Graphics/SVG/1.1/DTD/svg11.dtd">
<svg version="1.1" id="Calque_1" xmlns="http://www.w3.org/2000/svg" xmlns:xlink="http://www.w3.org/1999/xlink" x="0px" y="0px"
	 width="11.87px" height="10.819px" viewBox="0 0 11.87 10.819" enable-background="new 0 0 11.87 10.819" xml:space="preserve">
<g>
	<path fill="#676767" d="M1.274,3.883c0-0.959,0.516-2.327,1.931-2.327c1.415,0,1.931,1.367,1.931,2.327
		c0,0.948-0.516,2.327-1.931,2.327C1.79,6.209,1.274,4.831,1.274,3.883z M3.229,5.73c0.66,0,0.72-1.235,0.72-1.859
		c0-0.624-0.06-1.835-0.72-1.835c-0.672,0-0.768,1.176-0.768,1.835C2.462,4.519,2.558,5.73,3.229,5.73z M3.433,9.424
		c1.5-2.674,2.987-5.361,4.438-8.036c0.18-0.024,0.479,0.084,0.54,0.288C6.912,4.351,5.424,7.037,3.973,9.711
		C3.757,9.76,3.517,9.628,3.433,9.424z M6.779,7.049c0-0.959,0.516-2.327,1.931-2.327s1.931,1.368,1.931,2.327
		c0,0.947-0.516,2.327-1.931,2.327S6.779,7.997,6.779,7.049z M8.734,8.896c0.66,0,0.72-1.235,0.72-1.859s-0.06-1.835-0.72-1.835
		c-0.671,0-0.768,1.175-0.768,1.835C7.967,7.685,8.063,8.896,8.734,8.896z"/>
</g>
</svg>
