<?xml version="1.0" encoding="utf-8"?>
<!-- Generator: Adobe Illustrator 16.0.0, SVG Export Plug-In . SVG Version: 6.00 Build 0)  -->
<!DOCTYPE svg PUBLIC "-//W3C//DTD SVG 1.1//EN" "http://www.w3.org/Graphics/SVG/1.1/DTD/svg11.dtd">
<svg version="1.1" id="Calque_1" xmlns="http://www.w3.org/2000/svg" xmlns:xlink="http://www.w3.org/1999/xlink" x="0px" y="0px"
	 width="43.453px" height="30.357px" viewBox="0 0 43.453 30.357" enable-background="new 0 0 43.453 30.357" xml:space="preserve">
<g>
	<path fill="#FFFFFF" d="M21.174,9.229c0,2.596-1.224,6.044-3.188,9.01c-3.856,5.711-9.789,8.937-16.389,9.938
		C1.3,28.065,1.226,27.51,1.411,27.324c4.672-1.187,9.158-3.522,12.236-7.453c2.818-3.56,4.523-8.491,4.523-11.902
		c0-2.41-0.927-4.635-3.522-4.635c-3.188,0-5.599,3.522-5.599,7.082c0,2.114,0.741,4.264,3.226,4.264
		c0.667,0,1.075-0.074,1.409-0.148c0.222,0.111,0.296,0.482,0.148,0.705c-0.742,0.519-2.114,0.89-2.966,0.89
		c-2.929,0-4.969-2.188-4.969-5.339c0-3.931,3.782-8.565,8.825-8.565C19.357,2.221,21.174,5.299,21.174,9.229z"/>
	<path fill="#FFFFFF" d="M23.063,28.325c-0.631,0.111-1.187-0.334-1.15-0.778L37.634,6.411c0.891-1.187,0.482-1.446-0.556-1.446
		h-7.082c-2.781,0-2.967,0.223-4.19,1.706c-0.185,0.186-0.704,0-0.815-0.259c0.52-0.779,1.409-2.373,1.928-3.782
		c0.557,0.037,1.039,0.074,1.595,0.074c0.594,0.037,1.298,0.037,2.299,0.037h6.267c2.039,0,4.523,0,5.006-0.111
		c0.222,0.074,0.296,0.26,0.259,0.445c-1.52,1.409-3.114,3.374-5.153,6.155L23.063,28.325z"/>
</g>
</svg>
