<?xml version="1.0" encoding="utf-8"?>
<!-- Generator: Adobe Illustrator 16.0.0, SVG Export Plug-In . SVG Version: 6.00 Build 0)  -->
<!DOCTYPE svg PUBLIC "-//W3C//DTD SVG 1.1//EN" "http://www.w3.org/Graphics/SVG/1.1/DTD/svg11.dtd">
<svg version="1.1" id="Calque_1" xmlns="http://www.w3.org/2000/svg" xmlns:xlink="http://www.w3.org/1999/xlink" x="0px" y="0px"
	 width="43.453px" height="30.357px" viewBox="0 0 43.453 30.357" enable-background="new 0 0 43.453 30.357" xml:space="preserve">
<g>
	<path fill="#FFFFFF" d="M9.02,9.705c-0.288,0.648-0.18,0.72,0.288,0.792l0.972,0.144c3.456,0.504,7.631,1.8,7.631,7.091
		c0,4.356-3.6,7.883-7.307,9.467c-2.844,1.224-6.155,1.728-8.423,1.835c-0.504-0.144-0.54-0.899-0.18-1.224
		c8.135-0.072,13.139-4.355,13.139-9.179c0-4.931-4.032-5.975-8.243-6.011c-0.54,0-0.468-0.396-0.144-1.116l2.952-6.263
		c0.288-0.612,0.648-0.828,1.584-0.972l9.035-1.224c0.216,0.036,0.324,0.18,0.396,0.324c-0.324,0.792-0.972,1.692-1.548,2.124
		l-7.415,1.008c-1.116,0.144-1.44,0.252-1.728,0.936L9.02,9.705z"/>
	<path fill="#FFFFFF" d="M28.855,14.816c-0.18-0.252-0.252-0.504-0.108-0.648c0.828-0.684,2.34-1.116,3.131-1.116
		c2.988,0,5.22,1.8,5.22,5.976c0,3.923-3.708,8.063-8.603,8.063c-4.428,0-6.659-2.735-6.659-7.02c0-5.111,3.492-10.618,7.487-13.57
		c5.04-3.744,10.151-4.607,12.67-4.859c0.288,0.072,0.288,0.648,0.072,0.792C39.51,3.082,36.09,3.874,32.599,6.43
		c-4.896,3.599-7.739,9.575-7.739,14.362c0,3.096,1.116,5.219,3.924,5.219c3.383,0,5.219-4.283,5.219-7.451
		c0-2.483-1.224-4.067-3.276-4.067C30.115,14.492,29.215,14.672,28.855,14.816z"/>
</g>
</svg>
